<?xml version="1.0" encoding="iso-8859-1"?>
<!-- Generator: Adobe Illustrator 19.0.0, SVG Export Plug-In . SVG Version: 6.00 Build 0)  -->
<svg version="1.1" id="Layer_1" xmlns="http://www.w3.org/2000/svg" xmlns:xlink="http://www.w3.org/1999/xlink" x="0px" y="0px"
	 viewBox="0 0 511.999 511.999" style="enable-background:new 0 0 511.999 511.999;" xml:space="preserve">
<g>
	<g>
		<path d="M423.485,183.48V30.46h-47.189V60.92h-16.764H344.32h-16.762h-15.213h-16.763H280.37h-16.763V30.46h-31.976V0h-47.191
			v20.306h-31.975v30.46h-16.764H120.49H88.514v132.713c-14.203,12.671-22.091,25.966-22.091,38.222v290.298h379.154V221.702
			C445.577,209.447,437.688,196.152,423.485,183.48z M391.51,60.92V45.673h0h16.763v126.1c-2.571-1.728-5.258-3.432-8.061-5.109
			c-0.008-0.005-0.016-0.009-0.023-0.014c-1.316-0.786-2.66-1.566-4.026-2.34c-0.134-0.075-0.266-0.151-0.4-0.226
			c-1.395-0.786-2.807-1.568-4.253-2.34V60.92z M359.533,76.133h16.764v78.2c-5.447-2.426-11.044-4.683-16.764-6.767V76.133z
			 M327.559,76.133h16.762v66.382c-5.502-1.654-11.095-3.155-16.762-4.499V76.133z M295.582,76.133h16.763v58.68
			c-5.54-1.018-11.133-1.889-16.763-2.609V76.133z M263.605,76.133h16.764v54.51c-0.027-0.002-0.056-0.003-0.084-0.005
			c-2.682-0.209-5.368-0.386-8.059-0.527c-0.189-0.01-0.377-0.018-0.567-0.027c-2.579-0.13-5.161-0.231-7.744-0.297
			c-0.103-0.003-0.206-0.009-0.309-0.012V76.133z M231.63,45.673h16.764l-0.001,84.1c-0.102,0.003-0.205,0.009-0.307,0.012
			c-2.587,0.066-5.171,0.167-7.753,0.297c-0.186,0.009-0.37,0.018-0.555,0.027c-2.696,0.141-5.388,0.317-8.074,0.527
			c-0.024,0.002-0.05,0.003-0.074,0.005V45.673z M199.654,20.306v-5.093h16.763V30.46v101.743
			c-5.631,0.719-11.223,1.591-16.763,2.609V20.306z M167.68,50.767V35.519h16.762v102.496c-5.667,1.344-11.261,2.845-16.762,4.499
			V50.767z M135.703,65.98h16.764v81.585c-5.721,2.085-11.315,4.342-16.764,6.768V65.98z M103.726,65.98h16.763v95.766
			c-1.447,0.772-2.859,1.554-4.255,2.341c-0.133,0.075-0.264,0.149-0.395,0.224c-1.367,0.774-2.712,1.554-4.029,2.341
			c-0.008,0.005-0.016,0.009-0.023,0.014c-2.804,1.676-5.49,3.381-8.061,5.109V65.98z M430.364,496.787H81.635V481.54h348.729
			V496.787z M430.365,435.865H149.057v15.213h281.307v15.246H81.635v-15.246h47.137v-15.213H81.635V221.702
			c0-14.348,21.927-35.908,58.215-52.537c0.669-0.305,1.342-0.609,2.018-0.909c0.289-0.129,0.575-0.26,0.867-0.388
			c6.319-2.773,12.929-5.34,19.757-7.67l0.038-0.013c10.003-3.415,20.476-6.315,31.128-8.623l0.014-0.003
			c10.239-2.217,20.722-3.903,31.156-5.012c7.662-0.815,15.407-1.329,23.118-1.542c0.239-0.006,0.482-0.011,0.721-0.017
			c2.449-0.062,4.896-0.098,7.333-0.098H256c2.436,0,4.881,0.036,7.329,0.098c0.241,0.006,0.486,0.01,0.727,0.017
			c7.709,0.213,15.453,0.726,23.116,1.542c10.43,1.109,20.912,2.795,31.156,5.012l0.014,0.003c10.649,2.306,21.119,5.206,31.12,8.62
			l0.01,0.003c6.844,2.336,13.467,4.908,19.802,7.688c0.264,0.117,0.523,0.235,0.784,0.352c0.702,0.311,1.399,0.626,2.093,0.941
			c36.288,16.629,58.214,38.189,58.214,52.535V435.865z"/>
	</g>
</g>
<g>
</g>
<g>
</g>
<g>
</g>
<g>
</g>
<g>
</g>
<g>
</g>
<g>
</g>
<g>
</g>
<g>
</g>
<g>
</g>
<g>
</g>
<g>
</g>
<g>
</g>
<g>
</g>
<g>
</g>
</svg>
